<svg width="274" height="67" viewBox="0 0 274 67" fill="none" xmlns="http://www.w3.org/2000/svg">
<path d="M76.7727 44.5286H73.8182L82.3636 21.2558H85.2727L93.8182 44.5286H90.8636L83.9091 24.9377H83.7273L76.7727 44.5286ZM77.8636 35.4377H89.7727V37.9377H77.8636V35.4377ZM108.08 37.3922V27.074H110.761V44.5286H108.08V41.574H107.898C107.489 42.4604 106.852 43.2142 105.989 43.8354C105.125 44.449 104.034 44.7558 102.716 44.7558C101.625 44.7558 100.655 44.5172 99.8068 44.0399C98.9583 43.5551 98.2917 42.8278 97.8068 41.8581C97.322 40.8808 97.0795 39.6498 97.0795 38.1649V27.074H99.7614V37.9831C99.7614 39.2558 100.117 40.271 100.83 41.0286C101.549 41.7861 102.466 42.1649 103.58 42.1649C104.246 42.1649 104.924 41.9945 105.614 41.6536C106.311 41.3127 106.894 40.7899 107.364 40.0854C107.841 39.3808 108.08 38.4831 108.08 37.3922ZM122.264 44.8922C120.81 44.8922 119.526 44.5248 118.412 43.7899C117.298 43.0475 116.427 42.002 115.798 40.6536C115.17 39.2975 114.855 37.6952 114.855 35.8467C114.855 34.0134 115.17 32.4225 115.798 31.074C116.427 29.7255 117.302 28.6839 118.423 27.949C119.545 27.2142 120.84 26.8467 122.31 26.8467C123.446 26.8467 124.344 27.0361 125.003 27.4149C125.67 27.7861 126.177 28.2104 126.526 28.6877C126.882 29.1574 127.158 29.5437 127.355 29.8467H127.582V21.2558H130.264V44.5286H127.673V41.8467H127.355C127.158 42.1649 126.878 42.5664 126.514 43.0513C126.151 43.5286 125.632 43.9566 124.957 44.3354C124.283 44.7066 123.385 44.8922 122.264 44.8922ZM122.628 42.4831C123.704 42.4831 124.613 42.2028 125.355 41.6422C126.098 41.074 126.662 40.2899 127.048 39.2899C127.435 38.2824 127.628 37.1195 127.628 35.8013C127.628 34.4983 127.438 33.3581 127.06 32.3808C126.681 31.396 126.12 30.6308 125.378 30.0854C124.635 29.5324 123.719 29.2558 122.628 29.2558C121.491 29.2558 120.545 29.5475 119.787 30.1308C119.037 30.7066 118.473 31.4907 118.094 32.4831C117.723 33.468 117.537 34.574 117.537 35.8013C117.537 37.0437 117.726 38.1725 118.105 39.1877C118.491 40.1952 119.06 40.9983 119.81 41.5967C120.567 42.1877 121.507 42.4831 122.628 42.4831ZM142.639 44.8922C141.063 44.8922 139.681 44.5172 138.491 43.7672C137.31 43.0172 136.385 41.968 135.719 40.6195C135.06 39.271 134.73 37.6952 134.73 35.8922C134.73 34.074 135.06 32.4869 135.719 31.1308C136.385 29.7748 137.31 28.7217 138.491 27.9717C139.681 27.2217 141.063 26.8467 142.639 26.8467C144.215 26.8467 145.594 27.2217 146.776 27.9717C147.965 28.7217 148.889 29.7748 149.548 31.1308C150.215 32.4869 150.548 34.074 150.548 35.8922C150.548 37.6952 150.215 39.271 149.548 40.6195C148.889 41.968 147.965 43.0172 146.776 43.7672C145.594 44.5172 144.215 44.8922 142.639 44.8922ZM142.639 42.4831C143.836 42.4831 144.821 42.1763 145.594 41.5627C146.366 40.949 146.938 40.1422 147.31 39.1422C147.681 38.1422 147.866 37.0589 147.866 35.8922C147.866 34.7255 147.681 33.6384 147.31 32.6308C146.938 31.6233 146.366 30.8089 145.594 30.1877C144.821 29.5664 143.836 29.2558 142.639 29.2558C141.442 29.2558 140.457 29.5664 139.685 30.1877C138.912 30.8089 138.34 31.6233 137.969 32.6308C137.598 33.6384 137.412 34.7255 137.412 35.8922C137.412 37.0589 137.598 38.1422 137.969 39.1422C138.34 40.1422 138.912 40.949 139.685 41.5627C140.457 42.1763 141.442 42.4831 142.639 42.4831ZM154.642 44.5286V27.074H157.233V29.8013H157.46C157.824 28.8695 158.411 28.146 159.222 27.6308C160.032 27.1081 161.006 26.8467 162.142 26.8467C163.294 26.8467 164.252 27.1081 165.017 27.6308C165.79 28.146 166.392 28.8695 166.824 29.8013H167.006C167.453 28.8998 168.123 28.1839 169.017 27.6536C169.911 27.1157 170.983 26.8467 172.233 26.8467C173.794 26.8467 175.07 27.3354 176.062 28.3127C177.055 29.2824 177.551 30.7937 177.551 32.8467V44.5286H174.869V32.8467C174.869 31.5589 174.517 30.6384 173.812 30.0854C173.108 29.5324 172.278 29.2558 171.324 29.2558C170.097 29.2558 169.146 29.627 168.472 30.3695C167.797 31.1043 167.46 32.0361 167.46 33.1649V44.5286H164.733V32.574C164.733 31.5816 164.411 30.7824 163.767 30.1763C163.123 29.5627 162.294 29.2558 161.278 29.2558C160.581 29.2558 159.93 29.4414 159.324 29.8127C158.725 30.1839 158.241 30.699 157.869 31.3581C157.506 32.0096 157.324 32.7634 157.324 33.6195V44.5286H154.642ZM187.591 44.9377C186.485 44.9377 185.481 44.7293 184.58 44.3127C183.678 43.8884 182.962 43.2786 182.432 42.4831C181.902 41.6801 181.636 40.7104 181.636 39.574C181.636 38.574 181.833 37.7634 182.227 37.1422C182.621 36.5134 183.148 36.021 183.807 35.6649C184.466 35.3089 185.193 35.0437 185.989 34.8695C186.792 34.6877 187.598 34.5437 188.409 34.4377C189.47 34.3013 190.33 34.199 190.989 34.1308C191.655 34.0551 192.14 33.9301 192.443 33.7558C192.754 33.5816 192.909 33.2786 192.909 32.8467V32.7558C192.909 31.6346 192.602 30.7634 191.989 30.1422C191.383 29.521 190.462 29.2104 189.227 29.2104C187.947 29.2104 186.943 29.4907 186.216 30.0513C185.489 30.6119 184.977 31.2104 184.682 31.8467L182.136 30.9377C182.591 29.877 183.197 29.0513 183.955 28.4604C184.72 27.8619 185.553 27.4452 186.455 27.2104C187.364 26.968 188.258 26.8467 189.136 26.8467C189.697 26.8467 190.341 26.9149 191.068 27.0513C191.803 27.1801 192.511 27.449 193.193 27.8581C193.883 28.2672 194.455 28.8846 194.909 29.7104C195.364 30.5361 195.591 31.6422 195.591 33.0286V44.5286H192.909V42.1649H192.773C192.591 42.5437 192.288 42.949 191.864 43.3808C191.439 43.8127 190.875 44.1801 190.17 44.4831C189.466 44.7861 188.606 44.9377 187.591 44.9377ZM188 42.5286C189.061 42.5286 189.955 42.3202 190.682 41.9036C191.417 41.4869 191.97 40.949 192.341 40.2899C192.72 39.6308 192.909 38.9377 192.909 38.2104V35.7558C192.795 35.8922 192.545 36.0172 192.159 36.1308C191.78 36.2369 191.341 36.3316 190.841 36.4149C190.348 36.4907 189.867 36.5589 189.398 36.6195C188.936 36.6725 188.561 36.718 188.273 36.7558C187.576 36.8467 186.924 36.9945 186.318 37.199C185.72 37.396 185.235 37.6952 184.864 38.0967C184.5 38.4907 184.318 39.0286 184.318 39.7104C184.318 40.6422 184.663 41.3467 185.352 41.824C186.049 42.2937 186.932 42.5286 188 42.5286ZM223.759 27.074L217.304 44.5286H214.577L208.122 27.074H211.031L215.849 40.9831H216.031L220.849 27.074H223.759ZM233.764 44.8922C232.188 44.8922 230.806 44.5172 229.616 43.7672C228.435 43.0172 227.51 41.968 226.844 40.6195C226.185 39.271 225.855 37.6952 225.855 35.8922C225.855 34.074 226.185 32.4869 226.844 31.1308C227.51 29.7748 228.435 28.7217 229.616 27.9717C230.806 27.2217 232.188 26.8467 233.764 26.8467C235.34 26.8467 236.719 27.2217 237.901 27.9717C239.09 28.7217 240.014 29.7748 240.673 31.1308C241.34 32.4869 241.673 34.074 241.673 35.8922C241.673 37.6952 241.34 39.271 240.673 40.6195C240.014 41.968 239.09 43.0172 237.901 43.7672C236.719 44.5172 235.34 44.8922 233.764 44.8922ZM233.764 42.4831C234.961 42.4831 235.946 42.1763 236.719 41.5627C237.491 40.949 238.063 40.1422 238.435 39.1422C238.806 38.1422 238.991 37.0589 238.991 35.8922C238.991 34.7255 238.806 33.6384 238.435 32.6308C238.063 31.6233 237.491 30.8089 236.719 30.1877C235.946 29.5664 234.961 29.2558 233.764 29.2558C232.567 29.2558 231.582 29.5664 230.81 30.1877C230.037 30.8089 229.465 31.6233 229.094 32.6308C228.723 33.6384 228.537 34.7255 228.537 35.8922C228.537 37.0589 228.723 38.1422 229.094 39.1422C229.465 40.1422 230.037 40.949 230.81 41.5627C231.582 42.1763 232.567 42.4831 233.764 42.4831Z" fill="white"/>
<g clip-path="url(#clip0_20_10)">
<path d="M253.925 13.0058C255.212 14.2322 255.934 15.8933 255.929 17.6235C255.927 18.4802 255.747 19.3282 255.399 20.1189C255.051 20.9096 254.542 21.6276 253.901 22.2319C252.606 23.4524 250.854 24.1356 249.028 24.1314C247.202 24.1272 245.453 23.4358 244.165 22.2093C242.877 20.9828 242.155 19.3216 242.16 17.5913C242.164 15.8609 242.894 14.2031 244.188 12.9825C245.483 11.762 247.236 11.0786 249.062 11.0829C250.888 11.0871 252.637 11.7786 253.925 13.0051L253.925 13.0058Z" fill="#8899A6"/>
<path d="M256.355 19.6051C256.355 19.7122 256.332 19.8182 256.289 19.9171C256.245 20.0159 256.182 20.1057 256.101 20.1813C256.021 20.2568 255.926 20.3166 255.822 20.3574C255.717 20.3981 255.605 20.4188 255.492 20.4185L242.584 20.387C242.471 20.3868 242.359 20.3655 242.255 20.3243C242.15 20.2831 242.056 20.2228 241.976 20.1469C241.896 20.071 241.833 19.9809 241.79 19.8818C241.747 19.7827 241.725 19.6766 241.726 19.5695L241.73 17.9386C241.73 17.8315 241.753 17.7254 241.796 17.6266C241.84 17.5277 241.903 17.4379 241.983 17.3624C242.063 17.2868 242.158 17.227 242.263 17.1863C242.368 17.1456 242.48 17.1248 242.593 17.1252L255.501 17.1566C255.614 17.1568 255.726 17.1781 255.83 17.2193C255.934 17.2606 256.029 17.3208 256.109 17.3968C256.189 17.4727 256.252 17.5628 256.295 17.6618C256.338 17.7609 256.359 17.867 256.359 17.9741L256.355 19.6051ZM252.147 23.7542L246.029 23.7382C244.928 23.7349 244.098 24.5793 244.173 25.6234L245.139 38.8475C245.268 40.6081 246.469 42.0771 247.971 42.5001L247.955 49.0822L249.947 49.0869L249.964 42.5511C251.536 42.1924 252.812 40.6804 252.954 38.8662L253.992 25.6468C254.073 24.6037 253.248 23.7548 252.147 23.7542Z" fill="white" fill-opacity="0.35"/>
</g>
<path d="M260.455 27.074L264.636 34.2104L268.818 27.074H271.909L266.273 35.8013L271.909 44.5286H268.818L264.636 37.7558L260.455 44.5286H257.364L262.909 35.8013L257.364 27.074H260.455Z" fill="white"/>
<path d="M199.006 30.349C197.974 29.9879 197.227 29.3306 196.763 28.3772C196.3 27.4237 196.259 26.458 196.64 25.4802C197.021 24.5023 197.714 23.7938 198.72 23.3546C199.727 22.9154 200.746 22.8763 201.778 23.2374C202.137 23.3633 202.453 23.5201 202.726 23.7078C203 23.8964 203.245 24.1214 203.463 24.3829L207.118 15.0045L212.746 16.974L211.361 20.5298L207.608 19.2168L204.144 28.1062C203.763 29.0841 203.07 29.7926 202.063 30.2318C201.057 30.671 200.038 30.7101 199.006 30.349Z" fill="white"/>
<g filter="url(#filter0_d_20_10)">
<path fill-rule="evenodd" clip-rule="evenodd" d="M63.7688 29.2483C63.7688 45.3662 50.3345 58.418 33.8442 58.418C17.3536 58.418 4 45.3662 4 29.2483C4 13.0518 17.3536 0 33.8442 0C50.3345 0 63.7688 13.0518 63.7688 29.2483Z" fill="white"/>
</g>
<path fill-rule="evenodd" clip-rule="evenodd" d="M51.0587 22.9585L43.6577 45.602H43.5777L33.6832 17.2975C38.107 15.4108 43.3357 14.3098 48.8867 14.3098H46.6341C41.888 14.3098 37.3831 15.0961 33.3608 16.5115L29.6605 5.81836H22.4209L11.7222 35.1455H19.2838C19.2838 29.0912 22.9038 23.7449 28.695 19.9708L40.1183 52.2856H47.2777L57.8965 22.9585H51.0587ZM22.3402 23.1943L25.9602 12.4227H26.0405L28.2931 18.7913C25.9606 20.0493 23.9493 21.5432 22.3402 23.1943Z" fill="black"/>
<defs>
<filter id="filter0_d_20_10" x="0" y="0" width="67.7686" height="66.418" filterUnits="userSpaceOnUse" color-interpolation-filters="sRGB">
<feFlood flood-opacity="0" result="BackgroundImageFix"/>
<feColorMatrix in="SourceAlpha" type="matrix" values="0 0 0 0 0 0 0 0 0 0 0 0 0 0 0 0 0 0 127 0" result="hardAlpha"/>
<feOffset dy="4"/>
<feGaussianBlur stdDeviation="2"/>
<feComposite in2="hardAlpha" operator="out"/>
<feColorMatrix type="matrix" values="0 0 0 0 1 0 0 0 0 1 0 0 0 0 1 0 0 0 0.25 0"/>
<feBlend mode="normal" in2="BackgroundImageFix" result="effect1_dropShadow_20_10"/>
<feBlend mode="normal" in="SourceGraphic" in2="effect1_dropShadow_20_10" result="shape"/>
</filter>
<clipPath id="clip0_20_10">
<rect width="35.0746" height="35.0651" fill="white" transform="matrix(0.727589 -0.686014 0.72413 0.689664 220 29.0615)"/>
</clipPath>
</defs>
</svg>
