<svg width="229" height="256" viewBox="0 0 229 256" fill="none" xmlns="http://www.w3.org/2000/svg">
<path d="M47.356 195.595H66.364V242.977C66.364 250.181 72.2106 256 79.3871 256C86.5913 256 92.4101 250.153 92.4101 242.977V195.595H98.7V242.977C98.7 250.181 104.547 256 111.723 256C118.927 256 124.746 250.153 124.746 242.977V195.595H143.754C146.608 195.595 148.631 192.769 147.661 190.054L124.718 124.938V111.472L132.588 121.059C134.444 123.304 137.187 124.606 140.069 124.606C140.124 124.606 140.152 124.606 140.207 124.606C143.145 124.551 145.915 123.193 147.744 120.837L161.82 102.66L147.356 89.7483L139.93 99.3355L118.567 73.3725L117.708 72.3473L116.461 70.851C116.018 70.2968 115.519 69.8258 114.992 69.4102C114.964 69.4379 114.937 69.4933 114.909 69.521C114.41 70.186 113.607 70.6016 112.72 70.6016C111.196 70.6016 109.977 69.3824 109.977 67.8585C109.977 67.6922 110.005 67.526 110.033 67.3597C110.116 66.9718 110.254 66.5839 110.504 66.2791C109.174 65.5032 107.816 64.8105 106.375 64.2286C105.959 65.8357 105.239 67.2766 104.297 68.5235C103.41 69.6872 102.33 70.657 101.11 71.4052C99.4758 72.375 97.6191 72.9291 95.624 72.9291C94.9593 72.9291 94.3217 72.8737 93.6844 72.7352C89.9161 72.0425 86.7853 69.327 85.3164 65.6695C85.1228 65.1984 84.9842 64.6997 84.8457 64.2009C83.4048 64.7828 82.0194 65.4478 80.7171 66.2514C80.7171 66.2791 80.7448 66.2791 80.7448 66.3068C81.0499 66.7501 81.2159 67.2766 81.2159 67.8308C81.2159 69.3547 79.997 70.5739 78.473 70.5739C77.5863 70.5739 76.7825 70.1306 76.284 69.4933C76.1178 69.2716 76.0069 69.0499 75.8964 68.8006L30.6757 92.4914C28.1542 93.8214 26.3254 96.2044 25.7158 98.9753C25.1062 101.774 25.7435 104.683 27.4892 106.955L52.0667 139.097C53.9786 141.591 56.8603 142.893 59.7697 142.893C59.8802 142.893 59.9914 142.893 60.1022 142.893L43.5047 189.998C42.4792 192.769 44.502 195.595 47.356 195.595ZM108.066 70.9341C109.59 70.9341 110.809 72.1533 110.809 73.6773C110.809 75.2013 109.59 76.4204 108.066 76.4204C106.542 76.4204 105.323 75.2013 105.323 73.6773C105.295 72.181 106.542 70.9341 108.066 70.9341ZM102.551 76.0048C104.075 76.0048 105.295 77.224 105.295 78.748C105.295 80.2719 104.075 81.4911 102.551 81.4911C101.028 81.4911 99.8083 80.2719 99.8083 78.748C99.8083 77.224 101.028 76.0048 102.551 76.0048ZM95.5689 78.4709C97.0929 78.4709 98.3121 79.6901 98.3121 81.214C98.3121 82.738 97.0929 83.9572 95.5689 83.9572C94.0449 83.9572 92.826 82.738 92.826 81.214C92.826 79.6901 94.0726 78.4709 95.5689 78.4709ZM88.614 76.0048C90.138 76.0048 91.3572 77.224 91.3572 78.748C91.3572 80.2719 90.138 81.4911 88.614 81.4911C87.0901 81.4911 85.8709 80.2719 85.8709 78.748C85.8709 77.224 87.0901 76.0048 88.614 76.0048ZM83.1 70.9341C84.624 70.9341 85.8432 72.1533 85.8432 73.6773C85.8432 75.2013 84.624 76.4204 83.1 76.4204C81.5761 76.4204 80.3572 75.2013 80.3572 73.6773C80.3569 72.181 81.5761 70.9341 83.1 70.9341ZM49.7943 104.351L66.364 95.6779V124.938L49.7943 104.351Z" fill="#D4D4D4"/>
<path d="M135.968 77.6396C137.215 78.8034 138.406 79.4407 139.598 79.6346C140.678 79.8286 141.731 79.6623 142.756 79.219L150.293 85.9245L164.84 98.8367L169.495 102.965C170.133 103.519 170.908 103.796 171.712 103.796C172.571 103.796 173.43 103.464 174.067 102.826L175.536 101.358C176.783 100.111 176.838 98.116 175.674 96.8137L168.442 88.6676L162.041 81.4634L151.928 70.0752C152.343 69.0222 152.51 67.9693 152.343 66.9164C152.149 65.7249 151.512 64.5334 150.348 63.2865C150.265 63.2034 150.182 63.0926 150.071 63.0095C145.638 58.5761 138.822 58.2159 134.832 62.2059C130.842 66.196 131.202 73.0123 135.635 77.4457C135.801 77.4734 135.884 77.5565 135.968 77.6396Z" fill="#D4D4D4"/>
<path d="M129.761 52.9235C127.351 51.6212 122.058 47.8805 122.058 40.1775C122.058 30.2024 124.552 0 95.5965 0C66.641 0 69.1348 30.2024 69.1348 40.1775C69.1348 47.8805 63.8421 51.6212 61.4318 52.9235C60.7111 53.3114 60.3786 54.1427 60.6282 54.8908C62.2353 60.0446 66.2808 61.624 70.631 61.624C77.3091 61.624 84.6519 57.911 84.6519 57.911C81.1883 55.8883 79.4149 51.8705 78.556 47.8251C82.1858 53.8379 88.4756 57.8002 95.5967 57.8002C102.718 57.8002 109.008 53.8379 112.638 47.8251C111.778 51.8983 110.005 55.8883 106.542 57.911C106.542 57.911 113.884 61.624 120.562 61.624C124.885 61.624 128.958 60.0723 130.565 54.8908C130.786 54.1427 130.454 53.3114 129.761 52.9235Z" fill="#D4D4D4"/>
</svg>
