<svg width="249" height="249" viewBox="0 0 249 249" fill="none" xmlns="http://www.w3.org/2000/svg">
<g clip-path="url(#clip0_20_81)">
<path d="M168.585 209.372L141.932 53.7414C144.616 53.4374 146.971 51.5398 147.718 48.7745C148.612 45.4622 147.055 41.5735 142.343 40.3022C141.971 41.8069 142.39 40.5435 133.75 63.7991L158.963 211.02C159.418 213.677 161.94 215.462 164.598 215.007C167.254 214.552 169.04 212.029 168.585 209.372Z" fill="#D4D4D4"/>
<path d="M117.585 82.8866L133.731 39.4251C135.746 34.0016 132.983 27.9711 127.559 25.9563C122.136 23.9414 116.105 26.7042 114.09 32.1282L101.151 66.957L68.5454 59.4189L93.138 60.1679C90.1811 53.6404 83.001 49.8033 75.6993 51.3405L48.4412 57.0782C39.9995 58.8548 34.5964 67.1389 36.3735 75.5805L52.1927 150.742L50.049 187.253L24.0281 230.504C20.5538 236.279 22.4188 243.777 28.1939 247.252C33.97 250.727 41.4677 248.86 44.9416 243.086L72.5114 197.259C73.5288 195.568 74.1211 193.655 74.2374 191.684L76.7449 148.982L86.7146 146.883L100.159 179.588L100.746 236.92C100.815 243.555 106.199 249.041 113.073 248.998C119.813 248.929 125.22 243.41 125.151 236.671L124.54 176.993C124.524 175.444 124.213 173.911 123.624 172.479L110.378 140.255L101.212 96.7051L63.8285 79.8334L105.407 89.4462C110.535 90.6313 115.75 87.8247 117.585 82.8866Z" fill="#D5D5D5"/>
<path d="M105.485 30.3564C104.246 26.225 100.964 22.8096 96.4936 21.6035C90.3192 19.9373 83.9848 23.0537 81.4165 28.6868C82.2316 25.4061 82.3376 21.8953 81.5945 18.365C78.964 5.86791 66.7013 -2.13021 54.2046 0.500325C41.7075 3.13086 33.7094 15.3936 36.3399 27.8902C38.9705 40.3878 51.2337 48.3859 63.7298 45.7554C71.638 44.0907 77.7399 38.567 80.492 31.5698C79.195 38.1561 83.1999 44.7152 89.7794 46.4902C93.5314 47.5028 97.3418 46.7461 100.332 44.7351C102.265 39.5334 103.744 35.5513 105.657 30.4026L105.485 30.3564Z" fill="#D4D4D4"/>
<path d="M220.974 8.33127L220.972 8.32155C216.913 9.24265 189.451 15.4754 184.634 16.5687L184.648 16.6285C183.233 17.2651 182.247 18.6847 182.247 20.3362V47.9644C180.976 47.6352 179.609 47.4543 178.184 47.4543C171.447 47.4543 165.985 51.4606 165.985 56.4032C165.985 61.3457 171.447 65.352 178.184 65.352C185.426 65.352 190.165 60.7937 190.295 55.3449C190.309 54.7341 190.358 49.9812 190.383 30.8365L218.585 24.4355V39.6614C217.314 39.3321 215.948 39.1512 214.522 39.1512C207.785 39.1512 202.324 43.1576 202.324 48.1001C202.324 53.0426 207.785 57.049 214.522 57.049C221.762 57.049 226.503 52.4921 226.633 47.0419C226.648 46.4189 226.681 43.5744 226.721 12.0342C226.72 9.08605 223.67 7.10622 220.974 8.33127Z" fill="#D4D4D4"/>
</g>
<defs>
<clipPath id="clip0_20_81">
<rect width="249" height="249" fill="white"/>
</clipPath>
</defs>
</svg>
