<svg width="193" height="255" viewBox="0 0 193 255" fill="none" xmlns="http://www.w3.org/2000/svg">
<path d="M184 90.6L170.8 78L148.9 99.2C145.3 102.7 139.7 103.4 135.3 100.7L114.5 88.2L87.5003 135.7L110.4 176.2C111.6 178.3 112.2 180.7 112.2 183.2V239.9C112.2 247.9 105.5 254.4 97.4003 254C89.8003 253.6 83.9003 247.1 83.9003 239.5V186.9L61.8003 147.8V183.2C61.8003 184.9 61.5003 186.5 60.9003 188.1L40.1003 244.8C38.0003 250.5 32.6003 254.1 26.8003 254.1C25.2003 254.1 23.5003 253.8 21.9003 253.2C14.6003 250.5 10.8003 242.4 13.5003 235.1L33.5003 180.7V131.6C33.5003 125.6 35.2003 119.7 38.4003 114.6L58.1003 83.6L19.0003 107.6C17.2003 108.7 15.2003 109.3 13.2003 109.3C9.4003 109.3 5.8003 107.4 3.6003 104C0.400302 98.5 2.0003 91.6 7.3003 88.3L68.7003 50.7C77.0003 45.6 87.3003 45.6 95.6003 50.6L139.5 77.1L154.5 62.6L149.4 57.8C146.3 58.5 142.9 57.6 140.4 55.3C136.4 51.5 136.2 45.2 140 41.1C143.8 37.1 150.1 36.9 154.2 40.7C157 43.4 157.9 47.3 156.9 50.8L161.8 55.5L163.3 54.1C167.8 49.8 175 49.9 179.3 54.5C183.5 59 183 66.2 178.6 70.4L178.1 70.9L191 83.1L184 90.6ZM149.3 30.2L180.8 27.9L180.4 22L148.9 24.3L149.3 30.2ZM147.2 16.7L172.1 7.5L170.1 2L145.2 11.2L147.2 16.7ZM135.7 29.1C135.7 40.8 126.2 50.3 114.5 50.3C102.8 50.3 93.3003 40.8 93.3003 29.1C93.3003 17.4 102.8 7.9 114.5 7.9C126.2 7.9 135.7 17.4 135.7 29.1Z" fill="#D4D4D4"/>
</svg>
