<svg width="222" height="255" viewBox="0 0 222 255" fill="none" xmlns="http://www.w3.org/2000/svg">
<g clip-path="url(#clip0_20_116)">
<path d="M30.75 25.9704C36.8299 24.7704 41.016 20.1704 44.3051 14.9704C49.4879 6.67043 55.4681 3.47043 63.7407 4.07043C74.9037 4.87043 83.2759 14.5704 82.3789 25.7704C81.5815 36.9704 71.9136 44.6704 60.7506 44.4704C46.4978 44.1704 35.2352 34.7704 30.75 25.9704ZM145.27 246.17V31.6704H153.144V22.8704H127.33C127.23 17.6704 122.944 13.5704 117.762 13.5704H117.662C112.479 13.6704 108.393 17.7704 108.193 22.8704H104.705C103.21 20.2704 100.319 18.4704 97.13 18.4704C92.2462 18.4704 88.3591 22.3704 88.3591 27.2704C88.3591 32.1704 92.2462 36.0704 97.13 36.0704C100.419 36.0704 103.21 34.2704 104.705 31.6704H108.293L108.492 48.4704L36.0325 50.7704C26.7632 51.0704 18.8893 57.5704 16.8959 66.5704L4.23789 121.97C3.04186 127.17 6.23128 132.27 11.4141 133.47C12.1118 133.67 12.9092 133.67 13.6068 133.67C17.9923 133.67 21.8794 130.67 22.8761 126.27L34.7368 74.6704H39.7203L17.6933 173.17H39.4213V187.77L26.9626 242.67C25.6669 248.17 28.956 253.77 34.3381 255.37C40.3183 257.17 46.4978 253.57 47.8932 247.47L60.8502 190.77V173.07H66.7308V244.97C66.7308 250.97 71.5149 255.77 77.4951 255.77C83.4753 255.77 88.2594 250.97 88.2594 244.97V173.07H109.888L85.967 70.1704L118.061 67.2704H118.659C123.841 67.0704 127.928 62.7704 127.928 57.5704L127.629 31.5704H135.602V246.07H119.954V255.87H161.118V246.07H145.27V246.17Z" fill="#D4D4D4"/>
</g>
<path d="M216.272 22.3686L216.27 22.3589C212.224 23.28 184.853 29.5128 180.052 30.606L180.065 30.6658C178.656 31.3024 177.673 32.722 177.673 34.3736V62.0018C176.406 61.6725 175.044 61.4916 173.623 61.4916C166.908 61.4916 161.465 65.498 161.465 70.4405C161.465 75.383 166.908 79.3894 173.623 79.3894C180.841 79.3894 185.564 74.8311 185.694 69.3823C185.709 68.7714 185.757 64.0186 185.782 44.8739L213.891 38.4728V53.6987C212.624 53.3695 211.262 53.1886 209.841 53.1886C203.126 53.1886 197.683 57.1949 197.683 62.1375C197.683 67.08 203.126 71.0864 209.841 71.0864C217.057 71.0864 221.782 66.5295 221.912 61.0792C221.927 60.4562 221.96 57.6117 222 26.0715C221.999 23.1234 218.959 21.1436 216.272 22.3686Z" fill="#D4D4D4"/>
<defs>
<clipPath id="clip0_20_116">
<rect width="161.465" height="256" fill="white"/>
</clipPath>
</defs>
</svg>
